<svg width="24" height="24" viewBox="0 0 24 24" fill="none" xmlns="http://www.w3.org/2000/svg">
<path fill-rule="evenodd" clip-rule="evenodd" d="M3.04511 11.6748C3.04511 16.5456 6.57663 19.8635 10.5423 20.5503C10.9961 20.6288 11.3002 21.0603 11.2217 21.5143C11.1431 21.968 10.7115 22.2722 10.2577 22.1936C5.59905 21.3869 1.37732 17.4603 1.37732 11.6748C1.37732 9.21616 2.49591 7.28393 3.8022 5.81404C4.73796 4.7611 5.80852 3.90617 6.66951 3.25125H4.05126C3.60943 3.25125 3.25126 2.89307 3.25126 2.45125C3.25126 2.00942 3.60943 1.65125 4.05126 1.65125H8.85126C9.29308 1.65125 9.65126 2.00942 9.65126 2.45125V7.25125C9.65126 7.69307 9.29308 8.05125 8.85126 8.05125C8.40943 8.05125 8.05126 7.69307 8.05126 7.25125V4.29833L8.04884 4.30016C7.13449 4.98977 6.01692 5.83262 5.04884 6.92193C3.90561 8.20835 3.04511 9.76248 3.04511 11.6748ZM20.8174 12.3251C20.8174 7.50585 17.3608 4.20737 13.4461 3.47248C12.9935 3.3875 12.6954 2.95168 12.7804 2.49902C12.8654 2.04638 13.3012 1.74833 13.7538 1.83331C18.3526 2.69667 22.4851 6.60169 22.4851 12.3251C22.4851 14.7838 21.3665 16.716 20.0603 18.1859C19.1245 19.2389 18.0539 20.0938 17.1929 20.7488H19.8113C20.2531 20.7488 20.6113 21.1069 20.6113 21.5488C20.6113 21.9906 20.2531 22.3488 19.8113 22.3488H15.0113C14.5694 22.3488 14.2113 21.9906 14.2113 21.5488V16.7488C14.2113 16.3069 14.5694 15.9488 15.0113 15.9488C15.4531 15.9488 15.8113 16.3069 15.8113 16.7488V19.7016L15.8138 19.6997C16.7281 19.0101 17.8456 18.1674 18.8136 17.0781C19.9569 15.7916 20.8174 14.2375 20.8174 12.3251Z" fill="black"/>
</svg>
