<svg width="128" height="175" viewBox="0 0 128 175" fill="none" xmlns="http://www.w3.org/2000/svg">
<path d="M42.4256 75.7317C44.0813 81.8473 45.6634 87.6843 47.3034 93.729L29.2351 88.8302C30.7174 87.4215 31.9473 86.1364 33.3034 85.001C34.2443 84.2126 34.0919 83.7133 33.264 82.9932C32.3398 82.1903 31.4722 81.3245 30.6674 80.4018C30.0866 79.7474 29.7476 79.7658 29.172 80.4413C24.2774 86.1276 20.8487 92.9254 19.1852 100.241C18.6903 102.503 18.3392 104.793 18.134 107.098C18.0525 107.905 18.2785 108.181 19.1116 108.149C20.465 108.078 21.8213 108.078 23.1747 108.149C24.084 108.199 24.2732 107.839 24.2522 107.017C24.2023 105.177 24.2364 103.337 24.2364 101.214L40.2311 110.36C39.7476 110.996 39.101 111.195 38.5491 111.516C34.1681 114.047 29.766 116.546 25.3902 119.093C24.5255 119.595 24.1944 119.569 24.2391 118.452C24.3021 116.875 24.2391 115.298 24.2653 113.721C24.2837 113.035 24.0604 112.801 23.3718 112.822C22.0192 112.893 20.6639 112.893 19.3114 112.822C18.2785 112.751 18.0735 113.106 18.1629 114.073C18.7568 120.502 20.4756 126.586 23.5452 132.278C25.158 135.232 27.0718 138.012 29.2561 140.572C29.7397 141.143 30.0262 141.208 30.5544 140.638C31.5636 139.548 32.6227 138.504 33.7082 137.484C34.176 137.043 34.1444 136.764 33.6924 136.339C32.2627 134.996 30.8724 133.611 29.3034 132.081L47.3086 127.19L42.4571 145.124C41.0143 143.682 39.6687 142.407 38.4125 141.048C37.7922 140.381 37.398 140.339 36.7778 141.048C35.8816 142.06 34.9013 143.001 33.9131 143.926C33.3875 144.412 33.2929 144.693 33.9131 145.24C41.2219 151.505 49.645 155.182 59.2114 156.197C61.6555 156.459 61.6634 156.404 61.6634 153.986C61.6634 153.024 61.624 152.063 61.6634 151.095C61.7028 150.388 61.4269 150.197 60.7567 150.212C59.0984 150.249 57.4374 150.212 55.7633 150.212C55.3218 150.212 54.7541 150.252 55.1667 149.532C58.0576 144.465 60.9669 139.403 63.9998 134.113L73.2271 150.215C71.1824 150.215 69.3611 150.278 67.5477 150.191C66.528 150.141 66.281 150.488 66.3388 151.448C66.4203 152.798 66.3861 154.16 66.3388 155.513C66.3204 156.173 66.465 156.436 67.2061 156.373C77.3559 155.54 86.3282 151.887 94.0812 145.253C94.6462 144.77 94.7119 144.465 94.139 143.939C93.0877 142.961 92.0549 141.942 91.0825 140.877C90.5437 140.289 90.2126 140.42 89.7369 140.933C88.4623 142.304 87.1429 143.637 85.6029 145.235L80.6936 127.177L98.6646 132.039C97.1692 133.527 95.8525 134.896 94.4596 136.189C93.8683 136.738 93.8446 137.064 94.4596 137.613C95.5266 138.58 96.5358 139.618 97.5214 140.67C98.0154 141.195 98.294 141.095 98.7277 140.588C104.883 133.427 108.562 125.177 109.64 115.795C109.976 112.854 109.921 112.846 106.919 112.846C103.779 112.846 103.779 112.846 103.779 115.929C103.779 116.759 103.737 117.592 103.779 118.42C103.845 119.432 103.624 119.663 102.662 119.101C98.2546 116.523 93.8131 114.002 89.3874 111.461C88.8617 111.161 88.3571 110.843 87.6843 110.439L103.779 101.203C103.779 103.195 103.839 104.964 103.758 106.722C103.711 107.774 103.944 108.234 105.098 108.128C106.274 108.03 107.457 108.03 108.633 108.128C109.684 108.21 109.968 107.866 109.871 106.814C109.201 99.616 107.127 92.8854 103.379 86.6778C102.012 84.4406 100.472 82.3141 98.7723 80.3177C98.2756 79.7264 97.9655 79.7369 97.4583 80.2888C96.5411 81.2823 95.5897 82.2547 94.5831 83.1587C93.9182 83.7553 93.8394 84.1495 94.5542 84.7855C95.9182 85.9997 97.1981 87.3085 98.7592 88.8171L80.7251 93.7237L85.5845 75.7422C87.0404 77.2113 88.4071 78.5254 89.687 79.9156C90.2783 80.5569 90.6383 80.5385 91.2113 79.9156C92.1469 78.8775 93.1482 77.8973 94.1731 76.9459C94.7145 76.4413 94.6173 76.1785 94.0654 75.7711C91.7563 74.1199 89.2716 72.729 86.6567 71.6239C82.1101 69.6187 77.4216 67.9446 72.9774 65.7028C62.4124 60.352 56.0129 51.7396 53.0038 40.4309C52.4492 38.352 52.4624 38.3468 50.4124 39.0958C47.9157 40.0104 45.419 40.9355 42.9223 41.8369C42.3479 42.0405 41.7558 42.1901 41.1536 42.2837C40.2574 42.4256 40.1733 41.971 40.5255 41.2929C40.6444 41.0588 40.7899 40.8393 40.9591 40.6385C46.2364 34.6228 49.3691 27.4165 52.2915 20.1077C54.8145 13.8265 56.8618 7.385 58.7567 0.89093C58.8408 0.601838 58.9407 0.315374 59.0432 0C59.4952 0.165571 59.5688 0.578185 59.7528 0.880418C66.2494 11.7739 72.7882 22.6228 78.549 33.8948C79.4399 35.6425 80.3361 37.3954 80.8723 39.2982C80.9537 39.582 81.1561 39.9237 80.8723 40.1549C80.5148 40.4493 80.2179 40.1181 79.9629 39.8921C79.5192 39.5376 79.1003 39.153 78.7093 38.741C76.7041 36.5518 74.1338 35.4795 71.2429 35.0354C70.3388 34.8987 70.2547 35.1063 70.4544 35.9736C72.3099 43.7265 77.3848 48.4098 84.5753 51.2718C89.8788 53.3743 95.2191 55.4164 100.205 58.2653C107.482 62.4229 112.967 68.3966 117.492 75.3033C125.151 86.9958 128.654 99.8919 127.9 113.837C127.09 128.835 121.661 142.047 111.605 153.237C101.167 164.861 88.1259 171.871 72.6594 173.889C53.1746 176.433 35.8842 171.088 21.1826 158.026C9.61887 147.747 2.69905 134.746 0.643868 119.427C-1.98424 99.7369 3.45332 82.3519 16.586 67.4216C17.5374 66.3414 18.6307 65.3874 19.582 64.3073C20.1839 63.624 20.5755 63.6108 21.222 64.2784C23.4375 66.5727 25.7187 68.8066 27.9736 71.0642C30.9092 73.9998 33.8658 76.917 36.762 79.8894C37.4085 80.5516 37.7738 80.5569 38.3888 79.8736C39.6372 78.5149 40.9539 77.2402 42.4256 75.7317Z" fill="#07689A"/>
<path d="M85.503 110.465C85.503 122.32 75.8447 131.992 64.013 131.992C52.1812 131.992 42.5229 122.31 42.5255 110.46C42.5881 104.802 44.8796 99.3966 48.9028 95.4177C52.9259 91.4388 58.3559 89.2072 64.0143 89.2072C69.6726 89.2072 75.1027 91.4388 79.1258 95.4177C83.1489 99.3966 85.4405 104.802 85.503 110.46V110.465Z" fill="#9A1D1F"/>
</svg>
