<svg xmlns="http://www.w3.org/2000/svg" viewBox="0 0 110.29 40"><defs><style>.cls-1{fill:#8e4e31;}.cls-2{font-size:16px;font-family:MyanmarText-Bold, Myanmar Text;font-weight:700;}.cls-2,.cls-3{fill:#fff;}</style></defs><g id="Layer_2" data-name="Layer 2"><g id="Layer_1-2" data-name="Layer 1"><path class="cls-1" d="M96.84,0H13.45C6,0,0,9,0,20S6,40,13.45,40H96.84c7.43,0,13.45-8.95,13.45-20S104.27,0,96.84,0Z"/><text class="cls-2" transform="translate(39.68 26.37)">Desktop</text><path class="cls-3" d="M18.93,25.25H10.85c-.9,0-1.12-.22-1.12-1.13V14.66c0-.89.26-1.15,1.13-1.15h16.2c.89,0,1.15.25,1.15,1.13v9.51c0,.88-.22,1.1-1.1,1.1Zm.05-.91h7.55c.73,0,.77,0,.77-.79V15.21c0-.72-.08-.8-.8-.8H11.42c-.69,0-.78.09-.78.77v8.39c0,.73,0,.77.8.77Z"/><path class="cls-3" d="M18.91,27H9.2A1.86,1.86,0,0,1,8.46,27,.66.66,0,0,1,8,26.28a.68.68,0,0,1,.59-.66,2.88,2.88,0,0,1,.42,0h5.58c.23,0,.49-.07.64.22s.29.1.45.1H22.3c.18,0,.39,0,.5-.19s.32-.13.48-.13H29c.6,0,.94.26.95.69s-.35.74-1,.74H18.91Z"/></g></g></svg>