<svg xmlns="http://www.w3.org/2000/svg" viewBox="0 0 131 40"><defs><style>.cls-1{fill:none;}.cls-2{fill:#8e4e31;}.cls-3,.cls-4{fill:#fff;}.cls-3{fill-rule:evenodd;}.cls-4{font-size:16px;font-family:MyanmarText-Bold, Myanmar Text;font-weight:700;}</style></defs><g id="Layer_2" data-name="Layer 2"><g id="Layer_1-2" data-name="Layer 1"><rect class="cls-1" width="131" height="40"/><path class="cls-2" d="M111,0H20a20,20,0,0,0,0,40h91a20,20,0,0,0,0-40Z"/><path class="cls-3" d="M19.83,11.14a.49.49,0,1,0-.69.69l1.71,1.71a1.25,1.25,0,0,0-.1.51v2.6a1.3,1.3,0,0,0,1.3,1.3H34.4a1.3,1.3,0,0,0,1.3-1.3v-2.6a1.45,1.45,0,0,0-.1-.51l1.71-1.71a.49.49,0,1,0-.69-.69l-1.71,1.71a1.45,1.45,0,0,0-.51-.1H22.05a1.25,1.25,0,0,0-.51.1Zm5.79,4.21a1.3,1.3,0,1,1-1.3-1.3A1.3,1.3,0,0,1,25.62,15.35Zm7.8,0a1.3,1.3,0,1,1-1.3-1.3A1.3,1.3,0,0,1,33.42,15.35Z"/><path class="cls-3" d="M31.48,23.8a3.26,3.26,0,1,1-3.26-3.25A3.26,3.26,0,0,1,31.48,23.8Zm-3.26,2.27A2.28,2.28,0,1,0,26,23.15H27.1a1.28,1.28,0,0,1,1.12-.65,1.3,1.3,0,1,1,0,2.6,1.28,1.28,0,0,1-1.12-.65H26A2.27,2.27,0,0,0,28.22,26.07Z"/><path class="cls-3" d="M20.75,27.7V19.9a1.3,1.3,0,0,1,1.3-1.3H34.4a1.3,1.3,0,0,1,1.3,1.3v7.8A1.3,1.3,0,0,1,34.4,29H22.05A1.3,1.3,0,0,1,20.75,27.7Zm11.38-3.9a3.91,3.91,0,1,1-3.91-3.9A3.91,3.91,0,0,1,32.13,23.8Z"/><text class="cls-4" transform="translate(48.25 25.58)">F-Droid</text></g></g></svg>