<svg xmlns="http://www.w3.org/2000/svg" viewBox="0 0 128 40"><defs><style>.cls-1{fill:none;}.cls-2{fill:#8e4e31;}.cls-3,.cls-4{fill:#fff;}.cls-3{fill-rule:evenodd;}.cls-4{font-size:16px;font-family:MyanmarText-Bold, Myanmar Text;font-weight:700;}</style></defs><g id="Layer_2" data-name="Layer 2"><g id="Layer_1-2" data-name="Layer 1"><rect class="cls-1" width="128" height="40"/><path class="cls-2" d="M108,0H20a20,20,0,0,0,0,40h88a20,20,0,0,0,0-40Z"/><path class="cls-3" d="M28,11a9.09,9.09,0,0,0-9,9.23A9.2,9.2,0,0,0,25.14,29a.44.44,0,0,0,.6-.44c0-.21,0-.95,0-1.71-2.5.55-3-1.1-3-1.1a2.38,2.38,0,0,0-1-1.35c-.82-.56.06-.56.06-.56a1.89,1.89,0,0,1,1.38.95,1.88,1.88,0,0,0,2.61.76,2,2,0,0,1,.57-1.24c-2-.21-4.09-1-4.09-4.55a3.7,3.7,0,0,1,.92-2.48,3.47,3.47,0,0,1,.09-2.44s.76-.25,2.47.95A8.13,8.13,0,0,1,28,15.46a8.48,8.48,0,0,1,2.25.31c1.7-1.2,2.46-.95,2.46-.95a3.41,3.41,0,0,1,.09,2.44,3.61,3.61,0,0,1,.92,2.48c0,3.54-2.09,4.32-4.1,4.55A2.2,2.2,0,0,1,30.2,26c0,1.24,0,2.23,0,2.54s.16.53.61.44a9.2,9.2,0,0,0,6.13-8.75A9.08,9.08,0,0,0,28,11Z"/><text class="cls-4" transform="translate(48.77 26.13)">GitHub</text></g></g></svg>