<svg xmlns="http://www.w3.org/2000/svg" viewBox="0 0 164 40"><defs><style>.cls-1{fill:#8e4e31;}.cls-2,.cls-4{fill:#fff;}.cls-3{fill:none;}.cls-4{font-size:16px;font-family:MyanmarText-Bold, Myanmar Text;font-weight:700;}</style></defs><g id="Layer_2" data-name="Layer 2"><g id="Layer_1-2" data-name="Layer 1"><path class="cls-1" d="M144,0H20a20,20,0,0,0,0,40H144a20,20,0,0,0,0-40Z"/><path class="cls-2" d="M20.07,11.73a1.74,1.74,0,0,0-.07.53V27.74a1.74,1.74,0,0,0,.07.53L28.34,20Z"/><path class="cls-2" d="M20.78,29a1.45,1.45,0,0,0,1-.21l9.77-5.56L29,20.71Z"/><path class="cls-2" d="M32.45,22.7l3-1.69a1.06,1.06,0,0,0,0-2l-3-1.69L29.75,20Z"/><path class="cls-2" d="M31.55,16.79l-9.77-5.55a1.41,1.41,0,0,0-1-.22L29,19.29Z"/><rect class="cls-3" width="164" height="40"/><text class="cls-4" transform="translate(49 25.87)">Google Play</text></g></g></svg>