<svg xmlns="http://www.w3.org/2000/svg" viewBox="0 0 101.29 40"><defs><style>.cls-1{fill:#8e4e31;}.cls-2,.cls-3{fill:#fff;}.cls-3{font-size:16px;font-family:MyanmarText-Bold, Myanmar Text;font-weight:700;}</style></defs><g id="Layer_2" data-name="Layer 2"><g id="Layer_1-2" data-name="Layer 1"><path class="cls-1" d="M88.94,0H12.35C5.53,0,0,9,0,20S5.53,40,12.35,40H88.94c6.82,0,12.35-8.95,12.35-20S95.76,0,88.94,0Z"/><path class="cls-2" d="M27.64,19.91a9,9,0,1,1-9.22-8.63A8.93,8.93,0,0,1,27.64,19.91Zm-6.57-.2c.51,0,1,0,1.51,0,.26,0,.39-.08.38-.37a11.92,11.92,0,0,0-.33-2.3c-.05-.19-.13-.28-.35-.22a12.77,12.77,0,0,1-2.68.41c-.24,0-.37.11-.37.38,0,.58,0,1.17,0,1.75,0,.27.12.35.37.35C20.1,19.7,20.59,19.71,21.07,19.71Zm-9.08,0c.35,0,.71,0,1.07,0,.18,0,.29-.05.3-.26a13.37,13.37,0,0,1,.44-2.81c.06-.2,0-.28-.18-.36l-1.24-.64c-.13-.07-.24-.1-.34.05a8,8,0,0,0-1.37,3.75c0,.21.09.27.28.27C11.29,19.74,11.64,19.75,12,19.75Zm4.29,0c.47,0,.95,0,1.43,0,.29,0,.4-.11.39-.4q0-.82,0-1.65c0-.32-.13-.42-.42-.43a11.42,11.42,0,0,1-2.53-.41c-.21-.05-.32,0-.37.2a14.18,14.18,0,0,0-.33,2.34c0,.27.11.35.36.35C15.3,19.7,15.79,19.71,16.28,19.71Zm-5.61,1.43A8,8,0,0,0,12,24.73c.12.19.24.14.38.05a8.12,8.12,0,0,1,1.21-.62.29.29,0,0,0,.2-.39,13.92,13.92,0,0,1-.4-2.64c0-.2-.09-.29-.28-.29-.72,0-1.43,0-2.15,0C10.74,20.84,10.65,20.94,10.67,21.14Zm10.44-.3c-.51,0-1,0-1.54,0-.22,0-.33.08-.33.32v1.75c0,.19.09.27.28.28a13.19,13.19,0,0,1,2.79.44c.2.05.28,0,.33-.19A14.1,14.1,0,0,0,23,21.21c0-.3-.12-.38-.38-.37C22.09,20.85,21.6,20.84,21.11,20.84Zm4.26-1.14h1c.21,0,.31-.09.29-.31a8.11,8.11,0,0,0-1.3-3.59.25.25,0,0,0-.39-.1,8,8,0,0,1-1.21.6.25.25,0,0,0-.17.34,13.8,13.8,0,0,1,.46,2.78c0,.19.1.28.29.27Zm0,1.1h-1c-.19,0-.3.05-.31.27a13.68,13.68,0,0,1-.4,2.64.34.34,0,0,0,.22.45c.39.18.77.39,1.14.59.17.09.28.1.39-.07a8,8,0,0,0,1.26-3.57c0-.23-.07-.32-.3-.31Zm-9,0c-.5,0-1,0-1.5,0-.28,0-.38.11-.37.38a14.62,14.62,0,0,0,.31,2.19c.05.24.17.27.38.21a11.87,11.87,0,0,1,2.71-.43c.19,0,.27-.08.26-.28,0-.58,0-1.17,0-1.75,0-.26-.09-.33-.33-.32C17.29,20.85,16.8,20.84,16.32,20.84Zm2.92,5.34c0,.42,0,.83,0,1.25,0,.22-.11.52.09.64s.47-.1.67-.23a5.74,5.74,0,0,0,2.19-2.93c.09-.23-.09-.25-.24-.29a13.43,13.43,0,0,0-2.36-.34c-.27,0-.37,0-.36.33C19.25,25.13,19.24,25.66,19.24,26.18Zm-1.14.08h0c0-.53,0-1.07,0-1.6,0-.27-.1-.39-.38-.38a13.47,13.47,0,0,0-2.29.35c-.25.06-.26.18-.18.39a7.21,7.21,0,0,0,1,1.8A4,4,0,0,0,17.74,28c.25.11.39.14.37-.22C18.08,27.29,18.1,26.77,18.1,26.26Zm1.14-12v1.57c0,.24.07.35.33.33a15.6,15.6,0,0,0,2.36-.34c.24-.06.28-.16.19-.38A7,7,0,0,0,21,13.61a3.72,3.72,0,0,0-1.32-1.07c-.42-.18-.48-.14-.48.3Zm-1.14,0c0-.35,0-.71,0-1.07s.13-.6-.07-.69-.51.13-.74.28a5.81,5.81,0,0,0-2,2.75c-.08.18,0,.26.17.3a16.14,16.14,0,0,0,2.4.35c.24,0,.27-.12.27-.31ZM15.65,27.66a11,11,0,0,1-1.28-2.16c-.22-.51-.22-.51-.73-.27l-.06,0c-.94.48-1,.35-.16,1.09A6,6,0,0,0,15.65,27.66Zm6.12,0a7.2,7.2,0,0,0,2.67-1.78c.14-.15.14-.26-.06-.36l-.9-.42c-.17-.09-.25,0-.32.14A10.62,10.62,0,0,1,21.77,27.65ZM15.71,12.83A7.45,7.45,0,0,0,13,14.54c-.16.15-.2.26,0,.37l.91.42c.15.07.26.06.34-.12A9.9,9.9,0,0,1,15.71,12.83Zm6.05.07a10,10,0,0,1,1.35,2.35c.06.14.14.18.28.12l.94-.43c.15-.08.18-.17.05-.3A6.85,6.85,0,0,0,21.76,12.9Z"/><text class="cls-3" transform="translate(39.68 26.37)">Online</text></g></g></svg>